HIERARCHY
ROOT Hips
{
	OFFSET 2.702431 104.614021 -1.520780
	CHANNELS 6 Xposition Yposition Zposition Xrotation Yrotation Zrotation
	JOINT Chest
	{
		OFFSET -0.027536 13.589447 1.216683
		CHANNELS 3 Xrotation Yrotation Zrotation
		JOINT Chest2
		{
			OFFSET -5.131717 20.766396 1.220118
			CHANNELS 3 Xrotation Yrotation Zrotation
			JOINT Chest3
			{
				OFFSET -4.767098 14.049377 -1.646121
				CHANNELS 3 Xrotation Yrotation Zrotation
				JOINT Neck
				{
					OFFSET -4.667514 16.634430 -0.355150
					CHANNELS 3 Xrotation Yrotation Zrotation
					JOINT Head
					{
						OFFSET -4.259856 9.544479 0.764415
						CHANNELS 3 Xrotation Yrotation Zrotation
						End Site
						{
							OFFSET -4.251894 9.553513 0.692332
						}
					}
				}
				JOINT LeftCollar
				{
					OFFSET 0.765890 14.032349 2.076321
					CHANNELS 3 Xrotation Yrotation Zrotation
					JOINT LeftUpArm
					{
						OFFSET 9.437137 11.997192 -8.689476
						CHANNELS 3 Xrotation Yrotation Zrotation
						JOINT LeftLowArm
						{
							OFFSET -3.140579 32.288681 9.343722
							CHANNELS 3 Xrotation Yrotation Zrotation
							JOINT LeftHand
							{
								OFFSET -14.717135 25.841766 4.068852
								CHANNELS 3 Xrotation Yrotation Zrotation
								End Site
								{
									OFFSET -3.216498 5.647888 0.889260
								}
							}
						}
					}
				}
				JOINT RightCollar
				{
					OFFSET -7.283057 11.795914 3.101958
					CHANNELS 3 Xrotation Yrotation Zrotation
					JOINT RightUpArm
					{
						OFFSET -16.844482 1.243652 -4.817978
						CHANNELS 3 Xrotation Yrotation Zrotation
						JOINT RightLowArm
						{
							OFFSET -19.419109 25.460190 10.696282
							CHANNELS 3 Xrotation Yrotation Zrotation
							JOINT RightHand
							{
								OFFSET -16.997505 23.209793 8.564110
								CHANNELS 3 Xrotation Yrotation Zrotation
								End Site
								{
									OFFSET -3.714966 5.072739 1.871761
								}
							}
						}
					}
				}
			}
		}
	}
	JOINT LeftUpLeg
	{
		OFFSET 10.018147 0.040939 -0.232845
		CHANNELS 3 Xrotation Yrotation Zrotation
		JOINT LeftLowLeg
		{
			OFFSET -0.039825 -46.803188 7.310923
			CHANNELS 3 Xrotation Yrotation Zrotation
			JOINT LeftFoot
			{
				OFFSET -7.024808 -39.314255 -20.139763
				CHANNELS 3 Xrotation Yrotation Zrotation
				JOINT LeftToe
				{
					OFFSET 0.571856 -14.006048 19.054226
					CHANNELS 3 Xrotation Yrotation Zrotation
					End Site
					{
						OFFSET 3.992392 0.979416 23.295074
					}
				}
			}
		}
	}
	JOINT RightUpLeg
	{
		OFFSET -10.018149 -0.041138 0.232827
		CHANNELS 3 Xrotation Yrotation Zrotation
		JOINT RightLowLeg
		{
			OFFSET -29.774679 -36.647636 3.798800
			CHANNELS 3 Xrotation Yrotation Zrotation
			JOINT RightFoot
			{
				OFFSET -28.697567 -32.392471 -11.302959
				CHANNELS 3 Xrotation Yrotation Zrotation
				JOINT RightToe
				{
					OFFSET -20.170937 -9.827997 7.490022
					CHANNELS 3 Xrotation Yrotation Zrotation
					End Site
					{
						OFFSET -11.828529 -4.491106 19.986792
					}
				}
			}
		}
	}
}
MOTION
Frames: 16
Frame Time: 0.033333
7.737992 99.612617 -2.077023 6.148094 -6.972116 6.050564 1.293782 -0.874984 9.571552 4.277900 -1.700528 4.845259 -2.191019 -2.572741 -1.700418 -13.739479 -9.553693 4.698190 -0.000003 0.000001 -0.000002 15.771742 -11.853243 3.010371 39.216641 -11.326625 10.682007 7.237734 -2.655635 11.302813 -0.000000 0.000000 -0.000001 0.812773 4.746289 17.650068 0.863825 5.611044 1.723702 -4.868124 -3.400670 4.234121 -0.000001 0.000003 0.000003 -12.364369 -0.325447 -6.901665 7.232320 -0.580460 -8.711382 -0.521490 12.582958 7.323051 0.000001 -0.000001 -0.000003 -7.891311 3.643608 -9.166839 -3.467742 2.564811 -6.133469 8.919362 -2.977640 7.752654 -0.000002 0.000008 0.000000 
8.268128 99.022446 -2.193347 7.564288 -7.498474 6.629788 3.585748 -0.583864 10.021538 4.048947 -1.652798 4.627329 -2.416679 -1.660644 -1.720591 -13.239364 -8.970231 4.415376 0.000001 -0.000000 0.000003 17.083558 -12.933901 2.115376 44.639839 -12.416171 10.579986 8.649881 -1.592817 11.964474 -0.000002 -0.000000 -0.000001 1.210771 5.683879 19.119445 -0.635482 2.292013 1.958273 -3.364874 -2.109848 2.646704 -0.000002 0.000004 0.000004 -14.329360 -0.306884 -7.044290 7.010223 0.223343 -9.609897 0.837699 13.454574 7.476112 -0.000000 0.000001 -0.000002 -10.051350 4.722605 -9.842008 -3.661789 2.024347 -6.614117 9.711620 -2.969743 8.831569 -0.000002 0.000008 0.000000 
8.750242 98.475426 -2.299970 8.662683 -7.569780 6.929233 4.461842 -0.569535 10.796922 3.655578 -1.942864 5.037725 -2.288942 -0.662666 -2.149604 -14.975641 -9.195698 3.961584 0.000000 -0.000001 0.000005 17.571789 -13.289848 0.505873 49.122239 -13.147213 9.592914 8.883684 -0.743427 14.271144 0.000001 0.000000 0.000003 1.674620 5.114437 20.482814 -0.128346 1.749261 0.292231 -3.548759 -3.368577 2.475346 -0.000001 0.000004 0.000001 -15.854187 -0.355239 -7.123119 6.999853 0.641646 -10.080490 1.376690 13.939897 7.838038 -0.000000 -0.000000 -0.000000 -11.427731 5.509076 -10.340539 -3.363666 1.101914 -6.804107 10.001903 -2.441917 9.743150 -0.000005 0.000006 0.000002 
9.198460 97.928894 -2.404449 9.632524 -8.678509 7.034793 5.590404 -0.484648 11.427484 3.619056 -2.075902 5.583108 -2.410428 -0.455964 -2.394717 -16.632525 -9.486141 3.959012 0.000001 0.000000 0.000003 18.431238 -13.774363 -1.767118 52.166581 -14.874477 4.923639 11.602804 1.359270 19.839119 0.000001 0.000001 -0.000000 2.644330 5.334855 22.305137 0.592818 0.521847 -2.161751 -2.142851 -3.692798 1.658217 -0.000001 0.000003 0.000003 -17.651801 -0.440709 -6.556863 7.672676 0.671255 -11.412456 0.971222 15.016642 8.703441 -0.000000 -0.000001 -0.000003 -13.451759 6.711338 -10.341791 -2.603458 0.317395 -7.057351 10.844561 -2.124796 10.968166 -0.000001 0.000001 0.000001 
9.606124 97.407845 -2.500233 10.413498 -8.784514 7.033865 5.723556 -0.607202 12.233606 3.260982 -2.327485 6.233811 -2.215764 -1.013705 -2.752587 -17.536079 -9.338766 4.176052 -0.000002 -0.000002 0.000001 18.814624 -13.723961 -4.355528 54.740527 -17.066119 -0.755230 14.703072 4.147026 27.349047 -0.000000 0.000001 0.000001 3.893455 6.590295 23.333357 1.171027 -1.273770 -4.173796 -1.902957 -5.546242 1.878888 -0.000000 0.000004 0.000001 -18.997574 -0.436875 -6.452361 8.509328 0.250140 -11.925801 0.585733 15.306421 9.135142 -0.000000 -0.000001 -0.000001 -14.762889 7.544552 -10.432598 -1.766532 -0.099526 -7.073752 10.752515 -2.086762 11.108082 0.000001 0.000003 0.000001 
9.974642 96.918236 -2.595511 10.594504 -8.919378 6.935987 6.223845 -0.573926 12.764714 2.968453 -2.300875 6.190545 -2.104330 -0.868815 -2.583905 -18.193589 -9.266473 4.291165 -0.000000 0.000003 -0.000002 18.461323 -13.320144 -5.813000 57.209610 -18.551905 -3.491719 16.412414 6.150546 32.134346 -0.000000 -0.000002 -0.000005 4.445201 6.995033 23.568918 1.199498 -2.866093 -4.631965 -2.258743 -6.859049 2.272696 -0.000004 -0.000002 0.000002 -20.146411 -0.418639 -6.181430 9.764914 -0.385119 -12.571125 0.209767 15.462572 9.293482 -0.000000 -0.000001 -0.000002 -15.072332 7.784805 -10.506903 -1.509780 0.034539 -7.061771 10.783988 -2.353691 10.901526 0.000000 0.000006 0.000002 
10.315311 96.460327 -2.690711 11.240629 -8.912158 6.905839 6.765499 -0.492560 12.973424 2.492441 -2.458766 6.206531 -1.816043 -0.726485 -2.339681 -18.602973 -9.105449 4.096562 -0.000000 -0.000000 0.000001 17.961905 -13.449988 -6.810965 58.736000 -20.501494 -5.575927 19.113806 7.876247 34.694776 -0.000003 0.000003 -0.000004 4.245383 7.854957 23.067511 0.543203 -3.787964 -3.629189 -2.358200 -6.120721 1.733678 -0.000002 0.000003 0.000003 -21.470761 -0.385819 -6.033655 10.525364 -0.697461 -12.806435 -0.124395 15.089254 9.227298 0.000000 0.000002 -0.000001 -15.902762 8.167459 -10.581761 -1.764842 0.094965 -6.968213 11.220806 -2.511392 10.999208 -0.000002 0.000006 0.000002 
10.632693 96.029663 -2.781675 11.837979 -9.362099 6.856485 7.168228 -0.453395 13.244669 3.081388 -1.919504 5.591696 -2.660035 -0.239323 -1.739006 -19.144416 -9.496916 4.237068 -0.000001 -0.000001 -0.000001 18.033701 -13.871764 -7.333344 59.104147 -21.968875 -7.244768 21.502766 9.207664 35.830329 -0.000002 0.000002 -0.000006 3.955432 7.572397 23.060838 0.452500 -3.275703 -3.138198 -3.399890 -6.108016 1.270507 0.000000 0.000003 -0.000001 -22.582132 -0.358759 -5.698776 10.703401 -0.777652 -13.158705 0.092635 15.562347 9.376060 -0.000000 -0.000001 -0.000002 -17.305425 8.750571 -10.309302 -1.348794 -0.284115 -7.122085 11.609456 -2.526819 11.420589 0.000001 0.000004 0.000001 
10.925413 95.631393 -2.877594 11.690908 -9.579202 6.937408 7.311863 -0.425533 13.288796 3.590085 -1.731964 5.543918 -3.174105 -0.327450 -1.668902 -18.669707 -9.225944 4.201013 0.000001 0.000002 0.000001 17.721611 -13.834521 -7.639151 60.035881 -22.795237 -7.687987 23.830882 10.725725 37.561283 -0.000006 0.000003 0.000002 3.831062 7.340065 22.944362 0.432174 -3.210340 -2.758398 -3.809246 -5.948935 1.027011 -0.000001 0.000005 0.000001 -23.080097 -0.370416 -5.567061 10.997858 -0.895742 -13.658726 0.310625 16.015989 9.539867 -0.000000 -0.000000 -0.000000 -17.585041 8.909760 -10.470947 -1.194192 -0.380214 -7.002389 11.764947 -2.612603 11.455406 -0.000004 0.000010 0.000003 
11.198860 95.256554 -2.974330 11.320325 -10.467019 6.950115 7.942950 -0.291472 13.281030 3.863666 -1.591203 5.466855 -3.741929 -0.211781 -1.573924 -18.370820 -8.937729 4.259522 -0.000003 0.000000 0.000005 18.231260 -14.449834 -8.168911 59.471946 -23.797837 -10.200337 24.393416 11.551067 37.905897 -0.000001 -0.000001 -0.000001 3.818673 7.239863 23.134783 0.988229 -2.404265 -3.030133 -3.917808 -6.150723 0.187641 0.000000 0.000002 0.000001 -23.438909 -0.429933 -5.077610 11.470367 -1.017049 -14.666378 0.125186 16.786756 9.980246 -0.000000 0.000001 -0.000000 -18.326817 9.224753 -10.187547 -1.064950 -0.475913 -7.263597 12.294522 -2.556476 12.218482 -0.000002 0.000007 0.000001 
11.451149 94.916389 -3.056192 11.572467 -10.819774 6.966159 8.151003 -0.242909 13.220262 3.262113 -1.889511 5.750495 -3.441235 0.322016 -1.843168 -18.381789 -9.127446 4.572776 -0.000003 0.000002 0.000001 18.493313 -14.429297 -8.398947 59.973063 -23.818893 -10.684989 23.144157 11.333676 38.727248 -0.000000 0.000001 0.000005 4.127083 7.626689 22.798832 1.726228 -2.130782 -3.081332 -4.909557 -7.342348 -0.208220 -0.000000 0.000004 0.000001 -24.465302 -0.475805 -4.813411 12.007177 -1.325066 -15.178591 0.142305 17.508063 10.297138 -0.000001 -0.000000 -0.000000 -18.748861 9.497820 -10.150257 -1.043077 -0.294251 -7.194243 12.601757 -2.856942 12.006916 -0.000001 0.000003 0.000003 
11.685978 94.614029 -3.146194 12.294235 -10.649312 6.868297 7.548577 -0.371316 13.418575 3.806019 -1.540431 5.458511 -3.646767 0.187850 -1.609517 -18.986370 -9.402858 4.653701 0.000001 0.000002 0.000001 18.708194 -14.454475 -8.218459 59.813182 -23.407791 -10.358886 22.242289 10.824616 38.684153 -0.000000 -0.000002 0.000001 4.240699 8.168636 22.610424 1.490544 -2.782098 -3.247383 -5.664331 -8.043046 -0.234441 -0.000001 0.000001 0.000005 -25.404489 -0.489454 -4.691546 12.132555 -1.381874 -15.096298 0.580030 17.521013 10.111677 -0.000000 -0.000000 -0.000000 -19.271184 9.764795 -10.041331 -0.964775 -0.311115 -7.136043 12.016221 -2.755747 11.685595 -0.000000 0.000003 0.000003 
11.900955 94.339264 -3.228262 12.261718 -10.179471 6.826033 6.727823 -0.570890 13.726576 3.624458 -1.621281 5.559856 -3.123767 -0.001963 -1.935572 -19.066393 -9.615156 4.847205 0.000002 0.000000 0.000001 18.584424 -13.828661 -8.194572 61.259926 -23.120597 -9.694034 20.534740 10.184545 39.338772 -0.000002 0.000005 0.000002 4.545745 7.628203 22.116696 2.351823 -2.978070 -2.922793 -5.823100 -8.472935 -0.779346 -0.000001 -0.000001 0.000007 -25.316339 -0.506506 -4.815196 12.148477 -1.425057 -15.119215 0.687815 17.383865 10.080191 -0.000000 0.000000 -0.000003 -18.827025 9.670371 -10.340086 -0.914738 -0.405204 -6.997141 11.962702 -2.646302 11.525392 -0.000000 0.000005 0.000003 
12.115294 94.088821 -3.319864 11.852684 -10.078878 6.747895 6.877191 -0.566084 13.883865 3.761482 -1.512149 5.486398 -3.141601 -1.220728 -1.941649 -18.712739 -9.192817 4.785366 0.000001 0.000003 -0.000004 18.613305 -13.717543 -8.591527 61.468745 -23.011454 -9.921323 22.016534 11.646158 41.244415 -0.000000 -0.000001 0.000001 4.793178 7.873289 21.565754 2.361542 -4.258115 -2.317881 -5.256150 -7.809694 -1.681033 -0.000001 0.000001 0.000005 -25.053074 -0.516773 -4.863029 12.326263 -1.463407 -15.273690 0.644963 17.338420 10.085624 -0.000000 0.000001 0.000002 -18.552855 9.593098 -10.381537 -0.829203 -0.439979 -7.120967 12.208601 -2.749712 11.545958 -0.000001 0.000008 0.000000 
12.306330 93.856934 -3.414131 11.180481 -10.338170 6.750631 7.606561 -0.379273 13.709178 2.958398 -2.053317 5.925495 -2.591515 -0.808428 -2.476140 -18.762941 -9.612513 4.830697 -0.000001 0.000001 -0.000002 18.653981 -14.033582 -8.700297 62.075915 -23.620298 -10.310659 23.682002 13.123017 42.654579 -0.000003 -0.000001 0.000003 4.615991 6.887026 21.713311 2.357570 -4.223751 -1.852416 -5.035983 -7.597236 -2.111415 0.000001 0.000001 0.000005 -24.262365 -0.508308 -4.843921 12.041689 -1.198435 -15.440582 0.801064 17.489953 10.060837 -0.000000 0.000000 -0.000002 -18.222975 9.447711 -10.386851 -1.278566 -0.147288 -7.203277 12.563233 -2.857090 11.628503 -0.000001 0.000005 0.000003 
12.480215 93.655525 -3.485332 10.493185 -10.516576 6.678491 8.180366 -0.249826 13.641757 2.940166 -2.134568 6.014522 -2.844339 -0.296105 -2.553566 -19.137560 -9.825330 4.689320 -0.000000 -0.000001 -0.000002 18.963517 -14.172510 -8.424010 62.812810 -23.707530 -9.859250 22.918995 12.606198 42.352897 -0.000001 -0.000001 0.000003 4.628597 6.758755 21.390112 2.960359 -3.227082 -1.917953 -5.905354 -8.540428 -1.999366 0.000001 -0.000001 -0.000000 -23.588852 -0.475340 -4.893224 12.109509 -1.189706 -15.487924 0.738984 17.644761 10.154648 0.000000 0.000001 -0.000000 -17.964292 9.280760 -10.259078 -0.791086 -0.530138 -7.506575 12.744666 -2.548730 12.261761 -0.000001 0.000003 0.000003 
